<?xml version="1.0" encoding="UTF-8"?>
<svg width="174px" height="23px" viewBox="0 0 174 23" version="1.1" xmlns="http://www.w3.org/2000/svg" xmlns:xlink="http://www.w3.org/1999/xlink">
    <title>Group 2</title>
    <defs>
        <linearGradient x1="71.3958042%" y1="57.7309523%" x2="23.1952495%" y2="6.45972952%" id="linearGradient-1">
            <stop stop-color="#99ECD4" offset="0%"></stop>
            <stop stop-color="#60D4A9" offset="100%"></stop>
        </linearGradient>
    </defs>
    <g id="business-cards" stroke="none" stroke-width="1" fill="none" fill-rule="evenodd">
        <g id="A4" transform="translate(-204.000000, -19.000000)">
            <g id="Group-2" transform="translate(204.000000, 19.000000)">
                <g id="HealthHive,-PBC" transform="translate(28.000000, 2.000000)" fill="#113C53" fill-rule="nonzero">
                    <polygon id="Path" points="14.928 1 14.928 17.8 11.808 17.8 11.808 10.6 3.12 10.6 3.12 17.8 0 17.8 0 1 3.12 1 3.12 7.936 11.808 7.936 11.808 1"></polygon>
                    <path d="M30.104,11.424 C30.104,11.632 30.088,11.928 30.056,12.312 L20,12.312 C20.176,13.256 20.636,14.004 21.38,14.556 C22.124,15.108 23.048,15.384 24.152,15.384 C25.56,15.384 26.72,14.92 27.632,13.992 L29.24,15.84 C28.664,16.528 27.936,17.048 27.056,17.4 C26.176,17.752 25.184,17.928 24.08,17.928 C22.672,17.928 21.432,17.648 20.36,17.088 C19.288,16.528 18.46,15.748 17.876,14.748 C17.292,13.748 17,12.616 17,11.352 C17,10.104 17.284,8.98 17.852,7.98 C18.42,6.98 19.208,6.2 20.216,5.64 C21.224,5.08 22.36,4.8 23.624,4.8 C24.872,4.8 25.988,5.076 26.972,5.628 C27.956,6.18 28.724,6.956 29.276,7.956 C29.828,8.956 30.104,10.112 30.104,11.424 Z M23.624,7.2 C22.664,7.2 21.852,7.484 21.188,8.052 C20.524,8.62 20.12,9.376 19.976,10.32 L27.248,10.32 C27.12,9.392 26.728,8.64 26.072,8.064 C25.416,7.488 24.6,7.2 23.624,7.2 Z" id="Shape"></path>
                    <path d="M37.808,4.8 C39.696,4.8 41.14,5.252 42.14,6.156 C43.14,7.06 43.64,8.424 43.64,10.248 L43.64,17.76 L40.808,17.76 L40.808,16.2 C40.44,16.76 39.916,17.188 39.236,17.484 C38.556,17.78 37.736,17.928 36.776,17.928 C35.816,17.928 34.976,17.764 34.256,17.436 C33.536,17.108 32.98,16.652 32.588,16.068 C32.196,15.484 32,14.824 32,14.088 C32,12.936 32.428,12.012 33.284,11.316 C34.14,10.62 35.488,10.272 37.328,10.272 L40.64,10.272 L40.64,10.08 C40.64,9.184 40.372,8.496 39.836,8.016 C39.3,7.536 38.504,7.296 37.448,7.296 C36.728,7.296 36.02,7.408 35.324,7.632 C34.628,7.856 34.04,8.168 33.56,8.568 L32.384,6.384 C33.056,5.872 33.864,5.48 34.808,5.208 C35.752,4.936 36.752,4.8 37.808,4.8 Z M37.4,15.744 C38.152,15.744 38.82,15.572 39.404,15.228 C39.988,14.884 40.4,14.392 40.64,13.752 L40.64,12.264 L37.544,12.264 C35.816,12.264 34.952,12.832 34.952,13.968 C34.952,14.512 35.168,14.944 35.6,15.264 C36.032,15.584 36.632,15.744 37.4,15.744 Z" id="Shape"></path>
                    <polygon id="Path" points="46 0 49 0 49 17.808 46 17.808"></polygon>
                    <path d="M60.408,16.952 C60.056,17.24 59.628,17.456 59.124,17.6 C58.62,17.744 58.088,17.816 57.528,17.816 C56.12,17.816 55.032,17.448 54.264,16.712 C53.496,15.976 53.112,14.904 53.112,13.496 L53.112,7.328 L51,7.328 L51,4.928 L53.112,4.928 L53.112,2 L56.112,2 L56.112,4.928 L59.544,4.928 L59.544,7.328 L56.112,7.328 L56.112,13.424 C56.112,14.048 56.264,14.524 56.568,14.852 C56.872,15.18 57.312,15.344 57.888,15.344 C58.56,15.344 59.12,15.168 59.568,14.816 L60.408,16.952 Z" id="Path"></path>
                    <path d="M69.272,4.848 C70.888,4.848 72.184,5.32 73.16,6.264 C74.136,7.208 74.624,8.608 74.624,10.464 L74.624,17.808 L71.624,17.808 L71.624,10.848 C71.624,9.728 71.36,8.884 70.832,8.316 C70.304,7.748 69.552,7.464 68.576,7.464 C67.472,7.464 66.6,7.796 65.96,8.46 C65.32,9.124 65,10.08 65,11.328 L65,17.808 L62,17.808 L62,0 L65,0 L65,6.48 C65.496,5.952 66.108,5.548 66.836,5.268 C67.564,4.988 68.376,4.848 69.272,4.848 Z" id="Path"></path>
                    <polygon id="Path" points="91.68 1 91.68 17.8 90.456 17.8 90.456 9.808 79.224 9.808 79.224 17.8 78 17.8 78 1 79.224 1 79.224 8.728 90.456 8.728 90.456 1"></polygon>
                    <path d="M93.384,5.492 L94.584,5.492 L94.584,18.02 L93.384,18.02 L93.384,5.492 Z M93.984,2.444 C93.712,2.444 93.48,2.352 93.288,2.168 C93.096,1.984 93,1.756 93,1.484 C93,1.212 93.096,0.98 93.288,0.788 C93.48,0.596 93.712,0.5 93.984,0.5 C94.256,0.5 94.488,0.592 94.68,0.776 C94.872,0.96 94.968,1.188 94.968,1.46 C94.968,1.732 94.872,1.964 94.68,2.156 C94.488,2.348 94.256,2.444 93.984,2.444 Z" id="Shape"></path>
                    <polygon id="Path" points="109.152 5.2 103.488 17.728 102.264 17.728 96.624 5.2 97.896 5.2 102.888 16.408 107.928 5.2"></polygon>
                    <path d="M120.952,11.848 L110.176,11.848 C110.208,12.824 110.456,13.692 110.92,14.452 C111.384,15.212 112.012,15.8 112.804,16.216 C113.596,16.632 114.488,16.84 115.48,16.84 C116.296,16.84 117.052,16.692 117.748,16.396 C118.444,16.1 119.024,15.664 119.488,15.088 L120.184,15.88 C119.64,16.536 118.956,17.04 118.132,17.392 C117.308,17.744 116.416,17.92 115.456,17.92 C114.208,17.92 113.096,17.648 112.12,17.104 C111.144,16.56 110.38,15.808 109.828,14.848 C109.276,13.888 109,12.792 109,11.56 C109,10.344 109.26,9.252 109.78,8.284 C110.3,7.316 111.016,6.56 111.928,6.016 C112.84,5.472 113.864,5.2 115,5.2 C116.136,5.2 117.156,5.468 118.06,6.004 C118.964,6.54 119.676,7.288 120.196,8.248 C120.716,9.208 120.976,10.296 120.976,11.512 L120.952,11.848 Z M115,6.256 C114.12,6.256 113.328,6.452 112.624,6.844 C111.92,7.236 111.356,7.788 110.932,8.5 C110.508,9.212 110.264,10.016 110.2,10.912 L119.8,10.912 C119.752,10.016 119.512,9.216 119.08,8.512 C118.648,7.808 118.08,7.256 117.376,6.856 C116.672,6.456 115.88,6.256 115,6.256 Z" id="Shape"></path>
                    <path d="M122.792,16.704 C122.984,16.704 123.144,16.7706667 123.272,16.904 C123.4,17.0373333 123.464,17.1946667 123.464,17.376 C123.464,17.4826667 123.450667,17.5946667 123.424,17.712 C123.397333,17.8293333 123.362667,17.9626667 123.32,18.112 L122.696,20.288 L122.12,20.288 L122.648,18.032 C122.488,17.9893333 122.36,17.912 122.264,17.8 C122.168,17.688 122.12,17.5466667 122.12,17.376 C122.12,17.184 122.184,17.024 122.312,16.896 C122.44,16.768 122.6,16.704 122.792,16.704 Z" id="Path"></path>
                    <path d="M128.234,11 C129.114,11 129.804,11.2083333 130.304,11.625 C130.804,12.0416667 131.054,12.62 131.054,13.36 C131.054,14.0933333 130.804,14.6683333 130.304,15.085 C129.804,15.5016667 129.114,15.71 128.234,15.71 L126.234,15.71 L126.234,18 L125.724,18 L125.724,11 L128.234,11 Z M128.234,15.25 C128.980667,15.25 129.550667,15.0866667 129.944,14.76 C130.337333,14.4333333 130.534,13.9666667 130.534,13.36 C130.534,12.7533333 130.337333,12.285 129.944,11.955 C129.550667,11.625 128.980667,11.46 128.234,11.46 L126.234,11.46 L126.234,15.25 L128.234,15.25 Z" id="Shape"></path>
                    <path d="M136.934,14.39 C137.434,14.4833333 137.815667,14.68 138.079,14.98 C138.342333,15.28 138.474,15.67 138.474,16.15 C138.474,16.7433333 138.257333,17.2 137.824,17.52 C137.390667,17.84 136.747333,18 135.894,18 L132.774,18 L132.774,11 L135.694,11 C136.454,11 137.045667,11.155 137.469,11.465 C137.892333,11.775 138.104,12.2166667 138.104,12.79 C138.104,13.19 137.999,13.5266667 137.789,13.8 C137.579,14.0733333 137.294,14.27 136.934,14.39 Z M133.284,11.44 L133.284,14.23 L135.674,14.23 C136.287333,14.23 136.759,14.1116667 137.089,13.875 C137.419,13.6383333 137.584,13.29 137.584,12.83 C137.584,12.3766667 137.419,12.0316667 137.089,11.795 C136.759,11.5583333 136.287333,11.44 135.674,11.44 L133.284,11.44 Z M135.894,17.56 C136.574,17.56 137.089,17.4416667 137.439,17.205 C137.789,16.9683333 137.964,16.6033333 137.964,16.11 C137.964,15.6166667 137.789,15.2533333 137.439,15.02 C137.089,14.7866667 136.574,14.67 135.894,14.67 L133.284,14.67 L133.284,17.56 L135.894,17.56 Z" id="Shape"></path>
                    <path d="M143.254,18.05 C142.567333,18.05 141.949,17.8966667 141.399,17.59 C140.849,17.2833333 140.415667,16.86 140.099,16.32 C139.782333,15.78 139.624,15.1733333 139.624,14.5 C139.624,13.8266667 139.782333,13.22 140.099,12.68 C140.415667,12.14 140.849,11.7166667 141.399,11.41 C141.949,11.1033333 142.567333,10.95 143.254,10.95 C143.760667,10.95 144.227333,11.0316667 144.654,11.195 C145.080667,11.3583333 145.444,11.6 145.744,11.92 L145.424,12.25 C144.864,11.6966667 144.147333,11.42 143.274,11.42 C142.687333,11.42 142.154,11.5533333 141.674,11.82 C141.194,12.0866667 140.817333,12.455 140.544,12.925 C140.270667,13.395 140.134,13.92 140.134,14.5 C140.134,15.08 140.270667,15.605 140.544,16.075 C140.817333,16.545 141.194,16.9133333 141.674,17.18 C142.154,17.4466667 142.687333,17.58 143.274,17.58 C144.140667,17.58 144.857333,17.3 145.424,16.74 L145.744,17.07 C145.444,17.39 145.079,17.6333333 144.649,17.8 C144.219,17.9666667 143.754,18.05 143.254,18.05 Z" id="Path"></path>
                </g>
                <g id="Group" fill="url(#linearGradient-1)">
                    <path d="M11.5016035,10.2222222 L17.035315,13.4166667 L17.035315,19.8055556 L11.5016035,23 L5.96789192,19.8055556 L5.96789192,13.4166667 L11.5016035,10.2222222 Z M5.53371155,0 L11.0674231,3.19444444 L11.0674231,9.58333333 L5.53371155,12.7777778 L-4.24882352e-13,9.58333333 L-4.28435065e-13,3.19444444 L5.53371155,0 Z M17.4662885,0 L23,3.19444444 L23,9.58333333 L17.4662885,12.7777778 L11.9325769,9.58333333 L11.9325769,3.19444444 L17.4662885,0 Z" id="Combined-Shape"></path>
                </g>
            </g>
        </g>
    </g>
</svg>